<svg xmlns="http://www.w3.org/2000/svg" viewBox="0 0 120 120" fill="none" shape-rendering="auto" aria-hidden="true"><!-- Generated by DiceBear (https://www.dicebear.com) --><metadata xmlns:rdf="http://www.w3.org/1999/02/22-rdf-syntax-ns#" xmlns:xsi="http://www.w3.org/2001/XMLSchema-instance" xmlns:dc="http://purl.org/dc/elements/1.1/" xmlns:dcterms="http://purl.org/dc/terms/"><rdf:RDF><rdf:Description><dc:title>Bottts</dc:title><dc:creator>Pablo Stanley</dc:creator><dc:source xsi:type="dcterms:URI">https://bottts.com/</dc:source><dcterms:license xsi:type="dcterms:URI">https://bottts.com/</dcterms:license><dc:rights>Remix of “Bottts” (https://bottts.com/) by “Pablo Stanley”, licensed under “Free for personal and commercial use” (https://bottts.com/)</dc:rights></rdf:Description></rdf:RDF></metadata><defs><g id="texture-dots-0853851b"><path d="M51.4 123.8a2.1 2.1 0 1 1 0 4.2 2.1 2.1 0 0 1 0-4.2m12.6 0a2.1 2.1 0 1 1 0 4.2 2.1 2.1 0 0 1 0-4.2m12.6 0a2.1 2.1 0 1 1 0 4.2 2.1 2.1 0 0 1 0-4.2m-31.5-6.32a2.1 2.1 0 1 1 0 4.2 2.1 2.1 0 0 1 0-4.2m12.6 0a2.1 2.1 0 1 1 0 4.2 2.1 2.1 0 0 1 0-4.2m12.6 0a2.1 2.1 0 1 1 0 4.2 2.1 2.1 0 0 1 0-4.2m12.6 0a2.1 2.1 0 1 1 0 4.2 2.1 2.1 0 0 1 0-4.2m-31.5-6.31a2.1 2.1 0 1 1 0 4.2 2.1 2.1 0 0 1 0-4.2m12.6 0a2.1 2.1 0 1 1 0 4.2 2.1 2.1 0 0 1 0-4.2m13.1-.17a2.1 2.1 0 1 1 0 4.2 2.1 2.1 0 0 1 0-4.2m13 0a2.1 2.1 0 1 1 0 4.2 2.1 2.1 0 0 1 0-4.2m-20-6a2.1 2.1 0 1 1 0 4.2 2.1 2.1 0 0 1 0-4.2m24 0a2.1 2.1 0 1 1 0 4.2 2.1 2.1 0 0 1 0-4.2m-49-.14a2.1 2.1 0 1 1 0 4.2 2.1 2.1 0 0 1 0-4.2m12.6 0a2.1 2.1 0 1 1 0 4.2 2.1 2.1 0 0 1 0-4.2m25.2 0a2.1 2.1 0 1 1 0 4.2 2.1 2.1 0 0 1 0-4.2m-31.5-6.31a2.1 2.1 0 1 1 0 4.2 2.1 2.1 0 0 1 0-4.2m12.6 0a2.1 2.1 0 1 1 0 4.2 2.1 2.1 0 0 1 0-4.2m12.6 0a2.1 2.1 0 1 1 0 4.2 2.1 2.1 0 0 1 0-4.2m-31.5-6.31a2.1 2.1 0 1 1 0 4.2 2.1 2.1 0 0 1 0-4.2m12.6 0a2.1 2.1 0 1 1 0 4.2 2.1 2.1 0 0 1 0-4.2m12.6 0a2.1 2.1 0 1 1 0 4.2 2.1 2.1 0 0 1 0-4.2m12.6 0a2.1 2.1 0 1 1 0 4.2 2.1 2.1 0 0 1 0-4.2m-31.5-6.3a2.1 2.1 0 1 1 0 4.2 2.1 2.1 0 0 1 0-4.2m12.6 0a2.1 2.1 0 1 1 0 4.2 2.1 2.1 0 0 1 0-4.2m12.6 0a2.1 2.1 0 1 1 0 4.2 2.1 2.1 0 0 1 0-4.2m-31.5-6.32a2.1 2.1 0 1 1 0 4.2 2.1 2.1 0 0 1 0-4.2m12.6 0a2.1 2.1 0 1 1 0 4.2 2.1 2.1 0 0 1 0-4.2m12.6 0a2.1 2.1 0 1 1 0 4.2 2.1 2.1 0 0 1 0-4.2m12.6 0a2.1 2.1 0 1 1 0 4.2 2.1 2.1 0 0 1 0-4.2M51.4 73.3a2.1 2.1 0 1 1 0 4.2 2.1 2.1 0 0 1 0-4.2m12.6 0a2.1 2.1 0 1 1 0 4.2 2.1 2.1 0 0 1 0-4.2m12.6 0a2.1 2.1 0 1 1 0 4.2 2.1 2.1 0 0 1 0-4.2M57.7 67a2.1 2.1 0 1 1 0 4.2 2.1 2.1 0 0 1 0-4.2m12.6 0a2.1 2.1 0 1 1 0 4.2 2.1 2.1 0 0 1 0-4.2" fill="black" fill-opacity=".2"/><path d="M154 62.8a2.1 2.1 0 1 1 0 4.2 2.1 2.1 0 0 1 0-4.2m12.6 0a2.1 2.1 0 1 1 0 4.2 2.1 2.1 0 0 1 0-4.2m-18.9-6.32a2.1 2.1 0 1 1 0 4.2 2.1 2.1 0 0 1 0-4.2m25.2 0a2.1 2.1 0 1 1 0 4.2 2.1 2.1 0 0 1 0-4.2m-31.5-6.3a2.1 2.1 0 1 1 0 4.2 2.1 2.1 0 0 1 0-4.2m12.6 0a2.1 2.1 0 1 1 0 4.2 2.1 2.1 0 0 1 0-4.2m12.6 0a2.1 2.1 0 1 1 0 4.2 2.1 2.1 0 0 1 0-4.2m-18.9-6.32a2.1 2.1 0 1 1 0 4.2 2.1 2.1 0 0 1 0-4.2m12.6 0a2.1 2.1 0 1 1 0 4.2 2.1 2.1 0 0 1 0-4.2m12.6 0a2.1 2.1 0 1 1 0 4.2 2.1 2.1 0 0 1 0-4.2m-31.5-6.31a2.1 2.1 0 1 1 0 4.2 2.1 2.1 0 0 1 0-4.2m12.6 0a2.1 2.1 0 1 1 0 4.2 2.1 2.1 0 0 1 0-4.2m12.6 0a2.1 2.1 0 1 1 0 4.2 2.1 2.1 0 0 1 0-4.2m-31.5-6.3a2.1 2.1 0 1 1 0 4.19 2.1 2.1 0 0 1 0-4.2m12.6 0a2.1 2.1 0 1 1 0 4.2 2.1 2.1 0 0 1 0-4.2m12.6 0a2.1 2.1 0 1 1 0 4.2 2.1 2.1 0 0 1 0-4.2m12.6 0a2.1 2.1 0 1 1 0 4.2 2.1 2.1 0 0 1 0-4.2m-31.5-6.3a2.1 2.1 0 1 1 0 4.19 2.1 2.1 0 0 1 0-4.2m12.6 0a2.1 2.1 0 1 1 0 4.2 2.1 2.1 0 0 1 0-4.2m12.6 0a2.1 2.1 0 1 1 0 4.2 2.1 2.1 0 0 1 0-4.2m-31.5-6.3a2.1 2.1 0 1 1 0 4.2 2.1 2.1 0 0 1 0-4.2m12.6 0a2.1 2.1 0 1 1 0 4.2 2.1 2.1 0 0 1 0-4.2m12.6 0a2.1 2.1 0 1 1 0 4.2 2.1 2.1 0 0 1 0-4.2m12.6 0a2.1 2.1 0 1 1 0 4.2 2.1 2.1 0 0 1 0-4.2m-31.5-6.32a2.1 2.1 0 1 1 0 4.23 2.1 2.1 0 0 1 0-4.2m12.6 0a2.1 2.1 0 1 1 0 4.2 2.1 2.1 0 0 1 0-4.2m12.6 0a2.1 2.1 0 1 1 0 4.2 2.1 2.1 0 0 1 0-4.2M147.7 6a2.1 2.1 0 1 1 0 4.2 2.1 2.1 0 0 1 0-4.2m12.6 0a2.1 2.1 0 1 1 0 4.2 2.1 2.1 0 0 1 0-4.2" fill="black" fill-opacity=".1"/></g><g id="mouth-diagram-0853851b"><rect width="68" height="24" rx="5" fill="black" fill-opacity=".2"/><rect x="4" y="4" width="60" height="16" rx="2" fill="black" fill-opacity=".8"/><path d="M5 13h11l2-4 3 7 4-8 2 9 3-11 3 10 3-3h15l3-4 2 7 3-3h4" stroke="#4EFAC9" stroke-width="2" stroke-linecap="round" stroke-linejoin="round"/></g><g id="eyes-frame1-0853851b"><rect y="4" width="104" height="42" rx="4" fill="black" fill-opacity=".8"/><rect x="28" y="25" width="10" height="11" rx="2" fill="#8BDDFF"/><rect x="66" y="25" width="10" height="11" rx="2" fill="#8BDDFF"/><path fill-rule="evenodd" clip-rule="evenodd" d="M21 4h8L12 46H4z" fill="white" fill-opacity=".4"/></g><clipPath id="clip-0853851b"><rect width="120" height="120" rx="0" ry="0"/></clipPath></defs><g clip-path="url(#clip-0853851b)"><rect width="120" height="120" fill="#9b9312"/><mask id="botttsNeutral-a" style="mask-type:alpha"><path fill="#D9D9D9" d="M0 0h120v120H0z"/></mask><g mask="url(#botttsNeutral-a)"><use transform="translate(-48.5 -9.89)" href="#texture-dots-0853851b"/></g><use transform="translate(26 72)" href="#mouth-diagram-0853851b"/><use transform="translate(8 20)" href="#eyes-frame1-0853851b"/></g></svg>