<svg xmlns="http://www.w3.org/2000/svg" viewBox="0 0 100 100" fill="none" shape-rendering="auto" aria-hidden="true"><!-- Generated by DiceBear (https://www.dicebear.com) --><metadata xmlns:rdf="http://www.w3.org/1999/02/22-rdf-syntax-ns#" xmlns:xsi="http://www.w3.org/2001/XMLSchema-instance" xmlns:dc="http://purl.org/dc/elements/1.1/" xmlns:dcterms="http://purl.org/dc/terms/"><rdf:RDF><rdf:Description><dc:title>Critters</dc:title><dc:creator>DiceBear</dc:creator><dc:source xsi:type="dcterms:URI">https://www.dicebear.com</dc:source><dcterms:license xsi:type="dcterms:URI">https://creativecommons.org/publicdomain/zero/1.0/</dcterms:license><dc:rights>“Critters” (https://www.dicebear.com) by “DiceBear”, licensed under “CC0 1.0” (https://creativecommons.org/publicdomain/zero/1.0/)</dc:rights></rdf:Description></rdf:RDF></metadata><defs><g id="top-nub-ff79e5ca"><g opacity=".15" transform="translate(-23 -6.5)"><rect x="45" y="14" width="10" height="36" rx="5" fill="#1e293b"/></g><rect x="19" y="4" width="10" height="36" rx="5" fill="#e2e8f0"/></g><clipPath id="dbcrb-tower"><path d="M28 106V38a22 22 0 0 1 44 0v68Z"/></clipPath><g id="body-tower-ff79e5ca"><g class="dbcr-t"><use transform="translate(26 2)" href="#top-nub-ff79e5ca"/></g><path d="M31 109.5v-68a22 22 0 0 1 44 0v68Z" fill="#1e293b" opacity=".15"/><path d="M28 106V38a22 22 0 0 1 44 0v68Z" fill="#fda4af"/><g clip-path="url(#dbcrb-tower)"><path d="M28 106V38a22 22 0 0 1 44 0v68Zm3.5 4.5v-68a22 22 0 0 1 44 0v68Z" fill="#ffffff" opacity=".16" fill-rule="evenodd"/><path d="M28 106V38a22 22 0 0 1 44 0v68Zm-3.5-4.5v-68a22 22 0 0 1 44 0v68Z" fill="#1e293b" opacity=".1" fill-rule="evenodd"/></g></g><g id="pattern-ring-ff79e5ca"><circle cx="16" cy="12" r="8" stroke="#ffffff" stroke-width="3" opacity=".2"/></g><g id="cheeks-blushBig-ff79e5ca"><ellipse cx="5" cy="5" rx="4.5" ry="3" fill="#ffffff" opacity=".3"/><ellipse cx="39" cy="5" rx="4.5" ry="3" fill="#ffffff" opacity=".3"/></g><g id="eyes-dots-ff79e5ca"><g class="dbcr-eb"><circle cx="10" cy="13" r="4" fill="#1e293b"/></g><g class="dbcr-eb"><circle cx="36" cy="13" r="4" fill="#1e293b"/></g></g><g id="mouth-sad-ff79e5ca"><path d="M8 10q6-5 12 0" stroke="#1e293b" stroke-width="3.5" stroke-linecap="round" stroke-linejoin="round"/></g><g id="animation-medium-ff79e5ca"><g class="dbcr-medium"/><style>svg:has(.dbcr-medium){--dbcr-t:1;--dbcr-p:running}@media (prefers-reduced-motion: no-preference){@keyframes dbcrBob{0%,100%{transform:translateY(0)}50%{transform:translateY(-2px)}}@keyframes dbcrBlink{0%,92%,100%{transform:scaleY(1)}95%,97%{transform:scaleY(0.15)}}@keyframes dbcrSway{0%,100%{transform:rotate(0deg)}50%{transform:rotate(3deg)}} .dbcr-eb,.dbcr-t{transform-box:fill-box;transform-origin:center} .dbcr-c{animation:dbcrBob calc(var(--dbcr-t,1)*3.4s) ease-in-out infinite} .dbcr-eb{animation:dbcrBlink calc(var(--dbcr-t,1)*4.6s) linear infinite} .dbcr-t{animation:dbcrSway calc(var(--dbcr-t,1)*5.2s) ease-in-out infinite}.dbcr-c,.dbcr-eb,.dbcr-t{animation-play-state:var(--dbcr-p,paused)}}</style></g><clipPath id="clip-ff79e5ca"><rect width="100" height="100" rx="0" ry="0"/></clipPath></defs><g clip-path="url(#clip-ff79e5ca)"><rect width="100" height="100" fill="#be185d"/><g class="dbcr-c"><use href="#body-tower-ff79e5ca"/><use transform="translate(34 75)" href="#pattern-ring-ff79e5ca"/><use transform="translate(28 53)" href="#cheeks-blushBig-ff79e5ca"/><use transform="translate(27 36)" href="#eyes-dots-ff79e5ca"/><use transform="translate(36 60)" href="#mouth-sad-ff79e5ca"/></g><use href="#animation-medium-ff79e5ca"/></g></svg>