<svg xmlns="http://www.w3.org/2000/svg" viewBox="0 0 100 100" fill="none" shape-rendering="auto" aria-hidden="true"><!-- Generated by DiceBear (https://www.dicebear.com) --><metadata xmlns:rdf="http://www.w3.org/1999/02/22-rdf-syntax-ns#" xmlns:xsi="http://www.w3.org/2001/XMLSchema-instance" xmlns:dc="http://purl.org/dc/elements/1.1/" xmlns:dcterms="http://purl.org/dc/terms/"><rdf:RDF><rdf:Description><dc:title>Sprouts</dc:title><dc:creator>DiceBear</dc:creator><dc:source xsi:type="dcterms:URI">https://www.dicebear.com</dc:source><dcterms:license xsi:type="dcterms:URI">https://creativecommons.org/publicdomain/zero/1.0/</dcterms:license><dc:rights>“Sprouts” (https://www.dicebear.com) by “DiceBear”, licensed under “CC0 1.0” (https://creativecommons.org/publicdomain/zero/1.0/)</dc:rights></rdf:Description></rdf:RDF></metadata><defs><g id="plant-sprout-564909f1"><g opacity=".15" transform="translate(-14 -5.5)"><path d="M50 72V40" stroke="#1e293b" stroke-width="4" stroke-linecap="round" stroke-linejoin="round"/><path d="M50 40c-8 0-14-6-14-14 8 0 14 5 14 14m0 0c8 0 14-6 14-14-8 0-14 5-14 14m0 14c-4.8 0-8.4-3.6-8.4-8.4 4.8 0 8.4 3 8.4 8.4m0 0c4.8 0 8.4-3.6 8.4-8.4-4.8 0-8.4 3-8.4 8.4" fill="#1e293b"/></g><path d="M33 63V31" stroke="#2dd4bf" stroke-width="4" stroke-linecap="round" stroke-linejoin="round"/><path d="M33 31c-8 0-14-6-14-14 8 0 14 5 14 14m0 0c8 0 14-6 14-14-8 0-14 5-14 14m0 14c-4.8 0-8.4-3.6-8.4-8.4 4.8 0 8.4 3 8.4 8.4m0 0c4.8 0 8.4-3.6 8.4-8.4-4.8 0-8.4 3-8.4 8.4" fill="#2dd4bf"/></g><clipPath id="dbspp-bag"><path d="M13 6c0-2 2-2 4-2h32c2 0 4 0 4 2 3 14 3 28-1 36q-2 6-10 6H24q-8 0-10-6c-4-8-4-22-1-36"/></clipPath><g id="pot-bag-564909f1"><path d="M16 9.5c0-2 2-2 4-2h32c2 0 4 0 4 2 3 14 3 28-1 36q-2 6-10 6H27q-8 0-10-6c-4-8-4-22-1-36" fill="#1e293b" opacity=".15"/><path d="M13 6c0-2 2-2 4-2h32c2 0 4 0 4 2 3 14 3 28-1 36q-2 6-10 6H24q-8 0-10-6c-4-8-4-22-1-36" fill="#fda4af"/><g clip-path="url(#dbspp-bag)"><path d="M13 6c0-2 2-2 4-2h32c2 0 4 0 4 2 3 14 3 28-1 36q-2 6-10 6H24q-8 0-10-6c-4-8-4-22-1-36m3 3.5c0-2 2-2 4-2h32c2 0 4 0 4 2 3 14 3 28-1 36q-2 6-10 6H27q-8 0-10-6c-4-8-4-22-1-36" fill="#ffffff" opacity=".16" fill-rule="evenodd"/><path d="M13 6c0-2 2-2 4-2h32c2 0 4 0 4 2 3 14 3 28-1 36q-2 6-10 6H24q-8 0-10-6c-4-8-4-22-1-36m-3-3.5c0-2 2-2 4-2h32c2 0 4 0 4 2 3 14 3 28-1 36q-2 6-10 6H21q-8 0-10-6c-4-8-4-22-1-36" fill="#1e293b" opacity=".1" fill-rule="evenodd"/></g></g><g id="eyes-closedLine-564909f1"><path d="M3 9q6 5 12 0m10 0q6 5 12 0" stroke="#1e293b" stroke-width="3" stroke-linecap="round" stroke-linejoin="round"/></g><g id="mouth-line-564909f1"><path d="M4 5h12" stroke="#1e293b" stroke-width="3" stroke-linecap="round" stroke-linejoin="round"/></g><g id="animation-medium-564909f1"><g class="dbsp-medium"/><style>svg:has(.dbsp-medium){--dbsp-t:1;--dbsp-p:running}@media (prefers-reduced-motion: no-preference){@keyframes dbspSway{0%{transform:rotate(0deg);animation-timing-function:ease-out}25%{transform:rotate(-2.5deg);animation-timing-function:ease-in-out}75%{transform:rotate(2.5deg);animation-timing-function:ease-in}100%{transform:rotate(0deg)}}@keyframes dbspBlink{0%,92%,100%{transform:scaleY(1)}95%,97%{transform:scaleY(0.15)}} .dbsp-e{transform-box:fill-box;transform-origin:center} .dbsp-g{transform-box:fill-box;transform-origin:50% 100%} .dbsp-g{animation:dbspSway calc(var(--dbsp-t,1)*4.4s) ease-in-out infinite} .dbsp-e{animation:dbspBlink calc(var(--dbsp-t,1)*4.6s) linear infinite}.dbsp-g,.dbsp-e{animation-play-state:var(--dbsp-p,paused)}}</style></g><clipPath id="clip-564909f1"><rect width="100" height="100" rx="0" ry="0"/></clipPath></defs><g clip-path="url(#clip-564909f1)"><rect width="100" height="100" fill="#b45309"/><g class="dbsp-a"><g class="dbsp-g"><use transform="translate(17 9)" href="#plant-sprout-564909f1"/></g><use transform="translate(17 58)" href="#pot-bag-564909f1"/><g class="dbsp-e"><use transform="translate(30 67)" href="#eyes-closedLine-564909f1"/></g><use transform="translate(40 81)" href="#mouth-line-564909f1"/></g><use href="#animation-medium-564909f1"/></g></svg>