<svg xmlns="http://www.w3.org/2000/svg" viewBox="0 0 100 100" fill="none" shape-rendering="auto" aria-hidden="true"><!-- Generated by DiceBear (https://www.dicebear.com) --><metadata xmlns:rdf="http://www.w3.org/1999/02/22-rdf-syntax-ns#" xmlns:xsi="http://www.w3.org/2001/XMLSchema-instance" xmlns:dc="http://purl.org/dc/elements/1.1/" xmlns:dcterms="http://purl.org/dc/terms/"><rdf:RDF><rdf:Description><dc:title>Moods</dc:title><dc:creator>DiceBear</dc:creator><dc:source xsi:type="dcterms:URI">https://www.dicebear.com</dc:source><dcterms:license xsi:type="dcterms:URI">https://creativecommons.org/publicdomain/zero/1.0/</dcterms:license><dc:rights>“Moods” (https://www.dicebear.com) by “DiceBear”, licensed under “CC0 1.0” (https://creativecommons.org/publicdomain/zero/1.0/)</dc:rights></rdf:Description></rdf:RDF></metadata><defs><clipPath id="dbmo-f-hexagon"><path d="M46 7c11 0 27.5 8.33 33 18s5.5 30.33 0 40-22 18-33 18-27.5-8.33-33-18-5.5-30.33 0-40S35 7 46 7"/></clipPath><g id="face-hexagon-2b3582f5"><path d="M49 10.5c11 0 27.5 8.33 33 18s5.5 30.33 0 40-22 18-33 18-27.5-8.33-33-18-5.5-30.33 0-40 22-18 33-18" fill="#1e293b" opacity=".15"/><path d="M46 7c11 0 27.5 8.33 33 18s5.5 30.33 0 40-22 18-33 18-27.5-8.33-33-18-5.5-30.33 0-40S35 7 46 7" fill="#e2e8f0"/><g clip-path="url(#dbmo-f-hexagon)"><path d="M46 7c11 0 27.5 8.33 33 18s5.5 30.33 0 40-22 18-33 18-27.5-8.33-33-18-5.5-30.33 0-40S35 7 46 7m3 3.5c11 0 27.5 8.33 33 18s5.5 30.33 0 40-22 18-33 18-27.5-8.33-33-18-5.5-30.33 0-40 22-18 33-18" fill="#ffffff" opacity=".16" fill-rule="evenodd"/><path d="M46 7c11 0 27.5 8.33 33 18s5.5 30.33 0 40-22 18-33 18-27.5-8.33-33-18-5.5-30.33 0-40S35 7 46 7m-3-3.5c11 0 27.5 8.33 33 18s5.5 30.33 0 40-22 18-33 18-27.5-8.33-33-18-5.5-30.33 0-40 22-18 33-18" fill="#1e293b" opacity=".1" fill-rule="evenodd"/></g></g><g id="eyes-closed-2b3582f5"><path d="M4 9.5q6 5 12 0m18 0q6 5 12 0" fill="none" stroke="#1e293b" stroke-width="4" stroke-linecap="round"/></g><g id="mouth-line-2b3582f5"><path d="M10 5.5h16" fill="none" stroke="#1e293b" stroke-width="5" stroke-linecap="round"/></g><g id="animation-medium-2b3582f5"><g class="dbmo-medium"/><style>svg:has(.dbmo-medium){--dbmo-t:1;--dbmo-p:running}@media (prefers-reduced-motion: no-preference){@keyframes dbmoBlink{0%,91%,97%,100%{transform:scaleY(1)}94%{transform:scaleY(0.12)}} .dbmo-eyes{transform-box:fill-box;transform-origin:center;animation:dbmoBlink calc(var(--dbmo-t,1)*4.6s) linear infinite}.dbmo-eyes{animation-play-state:var(--dbmo-p,paused)}}</style></g><clipPath id="clip-2b3582f5"><rect width="100" height="100" rx="0" ry="0"/></clipPath></defs><g clip-path="url(#clip-2b3582f5)"><rect width="100" height="100" fill="#be123c"/><use transform="translate(4 6)" href="#face-hexagon-2b3582f5"/><g class="dbmo-eyes"><use transform="translate(25 33) translate(0.89965, 0.77378)" href="#eyes-closed-2b3582f5"/></g><use transform="translate(32 57) translate(-0.0031, -1.79504)" href="#mouth-line-2b3582f5"/><use href="#animation-medium-2b3582f5"/></g></svg>