<svg xmlns="http://www.w3.org/2000/svg" viewBox="0 0 100 100" fill="none" shape-rendering="auto" aria-hidden="true"><!-- Generated by DiceBear (https://www.dicebear.com) --><metadata xmlns:rdf="http://www.w3.org/1999/02/22-rdf-syntax-ns#" xmlns:xsi="http://www.w3.org/2001/XMLSchema-instance" xmlns:dc="http://purl.org/dc/elements/1.1/" xmlns:dcterms="http://purl.org/dc/terms/"><rdf:RDF><rdf:Description><dc:title>Critters</dc:title><dc:creator>DiceBear</dc:creator><dc:source xsi:type="dcterms:URI">https://www.dicebear.com</dc:source><dcterms:license xsi:type="dcterms:URI">https://creativecommons.org/publicdomain/zero/1.0/</dcterms:license><dc:rights>“Critters” (https://www.dicebear.com) by “DiceBear”, licensed under “CC0 1.0” (https://creativecommons.org/publicdomain/zero/1.0/)</dc:rights></rdf:Description></rdf:RDF></metadata><defs><g id="top-bobble-eb730a89"><g opacity=".15" transform="translate(-23 -6.5)"><path fill="#1e293b" d="M46 24h8v26h-8z"/><circle cx="50" cy="19" r="8.5" fill="#1e293b"/></g><path fill="#5eead4" d="M20 14h8v26h-8z"/><circle cx="24" cy="9" r="8.5" fill="#5eead4"/></g><clipPath id="dbcrb-tower"><path d="M28 106V38a22 22 0 0 1 44 0v68Z"/></clipPath><g id="body-tower-eb730a89"><g class="dbcr-t"><use transform="translate(26 2)" href="#top-bobble-eb730a89"/></g><path d="M31 109.5v-68a22 22 0 0 1 44 0v68Z" fill="#1e293b" opacity=".15"/><path d="M28 106V38a22 22 0 0 1 44 0v68Z" fill="#6ee7b9"/><g clip-path="url(#dbcrb-tower)"><path d="M28 106V38a22 22 0 0 1 44 0v68Zm3.5 4.5v-68a22 22 0 0 1 44 0v68Z" fill="#ffffff" opacity=".16" fill-rule="evenodd"/><path d="M28 106V38a22 22 0 0 1 44 0v68Zm-3.5-4.5v-68a22 22 0 0 1 44 0v68Z" fill="#1e293b" opacity=".1" fill-rule="evenodd"/></g></g><g id="cheeks-blush-eb730a89"><circle cx="4" cy="5" r="3.5" fill="#ffffff" opacity=".3"/><circle cx="40" cy="5" r="3.5" fill="#ffffff" opacity=".3"/></g><g id="eyes-bigPupils-eb730a89"><g class="dbcr-eb"><circle cx="10" cy="13" r="7" fill="#ffffff"/><circle cx="10" cy="13" r="5" fill="#1e293b"/></g><g class="dbcr-eb"><circle cx="36" cy="13" r="7" fill="#ffffff"/><circle cx="36" cy="13" r="5" fill="#1e293b"/></g></g><g id="mouth-smile-eb730a89"><path d="M4 4q10 10 20 0" stroke="#1e293b" stroke-width="3.5" stroke-linecap="round" stroke-linejoin="round"/></g><g id="animation-medium-eb730a89"><g class="dbcr-medium"/><style>svg:has(.dbcr-medium){--dbcr-t:1;--dbcr-p:running}@media (prefers-reduced-motion: no-preference){@keyframes dbcrBob{0%,100%{transform:translateY(0)}50%{transform:translateY(-2px)}}@keyframes dbcrBlink{0%,92%,100%{transform:scaleY(1)}95%,97%{transform:scaleY(0.15)}}@keyframes dbcrSway{0%,100%{transform:rotate(0deg)}50%{transform:rotate(3deg)}} .dbcr-eb,.dbcr-t{transform-box:fill-box;transform-origin:center} .dbcr-c{animation:dbcrBob calc(var(--dbcr-t,1)*3.4s) ease-in-out infinite} .dbcr-eb{animation:dbcrBlink calc(var(--dbcr-t,1)*4.6s) linear infinite} .dbcr-t{animation:dbcrSway calc(var(--dbcr-t,1)*5.2s) ease-in-out infinite}.dbcr-c,.dbcr-eb,.dbcr-t{animation-play-state:var(--dbcr-p,paused)}}</style></g><clipPath id="clip-eb730a89"><rect width="100" height="100" rx="0" ry="0"/></clipPath></defs><g clip-path="url(#clip-eb730a89)"><rect width="100" height="100" fill="#0369a1"/><g class="dbcr-c"><use href="#body-tower-eb730a89"/><use transform="translate(28 53)" href="#cheeks-blush-eb730a89"/><use transform="translate(27 36)" href="#eyes-bigPupils-eb730a89"/><use transform="translate(36 60)" href="#mouth-smile-eb730a89"/></g><use href="#animation-medium-eb730a89"/></g></svg>