<svg xmlns="http://www.w3.org/2000/svg" viewBox="0 0 100 100" fill="none" shape-rendering="auto" aria-hidden="true"><!-- Generated by DiceBear (https://www.dicebear.com) --><metadata xmlns:rdf="http://www.w3.org/1999/02/22-rdf-syntax-ns#" xmlns:xsi="http://www.w3.org/2001/XMLSchema-instance" xmlns:dc="http://purl.org/dc/elements/1.1/" xmlns:dcterms="http://purl.org/dc/terms/"><rdf:RDF><rdf:Description><dc:title>Sprouts</dc:title><dc:creator>DiceBear</dc:creator><dc:source xsi:type="dcterms:URI">https://www.dicebear.com</dc:source><dcterms:license xsi:type="dcterms:URI">https://creativecommons.org/publicdomain/zero/1.0/</dcterms:license><dc:rights>“Sprouts” (https://www.dicebear.com) by “DiceBear”, licensed under “CC0 1.0” (https://creativecommons.org/publicdomain/zero/1.0/)</dc:rights></rdf:Description></rdf:RDF></metadata><defs><clipPath id="dbsps-tulip"><path d="M23 25c0-12 4-16 10-10 6-6 10-2 10 10q0 8-10 8t-10-8"/></clipPath><g id="plant-tulip-4b48f8a0"><g opacity=".15" transform="translate(-14 -5.5)"><path d="M50 72V42" stroke="#1e293b" stroke-width="4" stroke-linecap="round" stroke-linejoin="round"/><path d="M50 60c-6.4 0-11.2-4.8-11.2-11.2 6.4 0 11.2 4 11.2 11.2m0 0c6.4 0 11.2-4.8 11.2-11.2-6.4 0-11.2 4-11.2 11.2M40 34c0-12 4-16 10-10 6-6 10-2 10 10q0 8-10 8t-10-8" fill="#1e293b"/><g clip-path="url(#dbsps-tulip)"><path d="M40 34c0-12 4-16 10-10 6-6 10-2 10 10q0 8-10 8t-10-8m-2-2.5c0-12 4-16 10-10 6-6 10-2 10 10q0 8-10 8t-10-8" fill="#1e293b" fill-rule="evenodd"/></g></g><path d="M33 63V33" stroke="#22c55e" stroke-width="4" stroke-linecap="round" stroke-linejoin="round"/><path d="M33 51c-6.4 0-11.2-4.8-11.2-11.2 6.4 0 11.2 4 11.2 11.2m0 0c6.4 0 11.2-4.8 11.2-11.2-6.4 0-11.2 4-11.2 11.2" fill="#22c55e"/><path d="M23 25c0-12 4-16 10-10 6-6 10-2 10 10q0 8-10 8t-10-8" fill="#fca5a5"/><g clip-path="url(#dbsps-tulip)"><path d="M23 25c0-12 4-16 10-10 6-6 10-2 10 10q0 8-10 8t-10-8m-2-2.5c0-12 4-16 10-10 6-6 10-2 10 10q0 8-10 8t-10-8" fill="#1e293b" opacity=".12" fill-rule="evenodd"/></g></g><clipPath id="dbspp-bowl"><path d="M7 4h52c0 28-10 44-26 44S7 32 7 4"/></clipPath><g id="pot-bowl-4b48f8a0"><path d="M10 7.5h52c0 28-10 44-26 44s-26-16-26-44" fill="#1e293b" opacity=".15"/><path d="M7 4h52c0 28-10 44-26 44S7 32 7 4" fill="#c4b5fd"/><g clip-path="url(#dbspp-bowl)"><path d="M7 4h52c0 28-10 44-26 44S7 32 7 4m3 3.5h52c0 28-10 44-26 44s-26-16-26-44" fill="#ffffff" opacity=".16" fill-rule="evenodd"/><path d="M7 4h52c0 28-10 44-26 44S7 32 7 4M4 .5h52c0 28-10 44-26 44S4 28.5 4 .5" fill="#1e293b" opacity=".1" fill-rule="evenodd"/></g></g><g id="pattern-chevron-4b48f8a0"><path d="m2 8 4-4 4 4 4-4 4 4 4-4 4 4" stroke="#ffffff" stroke-width="2.5" stroke-linecap="round" stroke-linejoin="round" opacity=".2"/></g><g id="eyes-sideeye-4b48f8a0"><circle cx="9" cy="10" r="6" fill="#ffffff"/><circle cx="31" cy="10" r="6" fill="#ffffff"/><circle cx="12" cy="10" r="2.6" fill="#1e293b"/><circle cx="34" cy="10" r="2.6" fill="#1e293b"/></g><g id="mouth-ooh-4b48f8a0"><circle cx="10" cy="5.5" r="3.4" fill="#1e293b"/></g><g id="animation-medium-4b48f8a0"><g class="dbsp-medium"/><style>svg:has(.dbsp-medium){--dbsp-t:1;--dbsp-p:running}@media (prefers-reduced-motion: no-preference){@keyframes dbspSway{0%{transform:rotate(0deg);animation-timing-function:ease-out}25%{transform:rotate(-2.5deg);animation-timing-function:ease-in-out}75%{transform:rotate(2.5deg);animation-timing-function:ease-in}100%{transform:rotate(0deg)}}@keyframes dbspBlink{0%,92%,100%{transform:scaleY(1)}95%,97%{transform:scaleY(0.15)}} .dbsp-e{transform-box:fill-box;transform-origin:center} .dbsp-g{transform-box:fill-box;transform-origin:50% 100%} .dbsp-g{animation:dbspSway calc(var(--dbsp-t,1)*4.4s) ease-in-out infinite} .dbsp-e{animation:dbspBlink calc(var(--dbsp-t,1)*4.6s) linear infinite}.dbsp-g,.dbsp-e{animation-play-state:var(--dbsp-p,paused)}}</style></g><clipPath id="clip-4b48f8a0"><rect width="100" height="100" rx="0" ry="0"/></clipPath></defs><g clip-path="url(#clip-4b48f8a0)"><rect width="100" height="100" fill="#b45309"/><g class="dbsp-a"><g class="dbsp-g"><use transform="translate(17 9)" href="#plant-tulip-4b48f8a0"/></g><use transform="translate(17 58)" href="#pot-bowl-4b48f8a0"/><use transform="translate(36 85)" href="#pattern-chevron-4b48f8a0"/><g class="dbsp-e"><use transform="translate(30 67)" href="#eyes-sideeye-4b48f8a0"/></g><use transform="translate(40 81)" href="#mouth-ooh-4b48f8a0"/></g><use href="#animation-medium-4b48f8a0"/></g></svg>