<svg xmlns="http://www.w3.org/2000/svg" viewBox="0 0 100 100" fill="none" shape-rendering="auto" aria-hidden="true"><!-- Generated by DiceBear (https://www.dicebear.com) --><metadata xmlns:rdf="http://www.w3.org/1999/02/22-rdf-syntax-ns#" xmlns:xsi="http://www.w3.org/2001/XMLSchema-instance" xmlns:dc="http://purl.org/dc/elements/1.1/" xmlns:dcterms="http://purl.org/dc/terms/"><rdf:RDF><rdf:Description><dc:title>Blobs</dc:title><dc:creator>DiceBear</dc:creator><dc:source xsi:type="dcterms:URI">https://www.dicebear.com</dc:source><dcterms:license xsi:type="dcterms:URI">https://creativecommons.org/publicdomain/zero/1.0/</dcterms:license><dc:rights>“Blobs” (https://www.dicebear.com) by “DiceBear”, licensed under “CC0 1.0” (https://creativecommons.org/publicdomain/zero/1.0/)</dc:rights></rdf:Description></rdf:RDF></metadata><defs><g id="blob-melt-742eda34"><path d="M77.05 45.57c.65 7.31 11.37 25.75 5.12 31.32-6.26 5.57-33.09 3.58-42.66 2.13-9.58-1.46-10.85-2.61-14.8-10.87s-14.05-30.39-8.9-38.7c5.15-8.3 29.37-11.74 39.78-11.15 10.42.59 19.11 10.16 22.68 14.7 3.58 4.55-1.87 5.25-1.22 12.57" fill="#ffffff"/></g><g id="blob-dune-742eda34"><path d="M75.03 41.71c-.97 8.49-6.34 30.79-12.35 36.7-6.01 5.9-14.23 3.53-23.69-1.27-9.46-4.81-33.78-18.99-33.06-27.56.73-8.57 26.98-20.17 37.41-23.86s19.89-.93 25.17 1.73c5.29 2.67 7.49 5.77 6.52 14.26" fill="#ffffff"/></g><g id="blob-pond-742eda34"><path d="M84.12 56.18c.11 7.82-3.88 19.27-8.57 22.12-4.68 2.85-8.45-3.23-19.56-5.01-11.1-1.78-40.23-.84-47.06-5.69-6.84-4.85 3.35-16.54 6.05-23.4s5.83-13.21 10.15-17.75c4.33-4.54 7.5-10.31 15.8-9.49 8.29.82 26.77 7.87 33.97 14.41 7.2 6.53 9.11 16.99 9.22 24.81" fill="#ffffff"/></g><g id="body-quartet-742eda34"><g opacity=".16" transform="matrix(1.8 0 0 1.8 -40 -40)"><g class="dbba-l1"><use transform="translate(0.829, -4.9797) rotate(57.5359, 50, 50) translate(50, 50) scale(1.1073) translate(-50, -50)" href="#blob-melt-742eda34"/></g></g><g opacity=".28" transform="translate(-7.5 -7.5)scale(1.15)"><g class="dbba-l2"><use transform="translate(6.5195, 6.3377) rotate(-108.0639, 50, 50) translate(50, 50) scale(1.0355) translate(-50, -50)" href="#blob-dune-742eda34"/></g></g><g opacity=".42" transform="matrix(.6 0 0 .6 20 20)"><g class="dbba-l3"><use transform="translate(4.1926, 0.2763) rotate(-173.2063, 50, 50) translate(50, 50) scale(0.8853) translate(-50, -50)" href="#blob-melt-742eda34"/></g></g><g opacity=".6" transform="matrix(.3 0 0 .3 35 35)"><g class="dbba-l4"><use transform="translate(-1.4249, -4.4208) rotate(112.433, 50, 50) translate(50, 50) scale(0.9232) translate(-50, -50)" href="#blob-pond-742eda34"/></g></g></g><g id="animation-medium-742eda34"><g class="dbba-medium"/><style>svg:has(.dbba-medium){--dbba-t:1;--dbba-p:running}@media (prefers-reduced-motion: no-preference){@keyframes dbbaSwayA{0%,100%{transform:rotate(0deg) translate(0,0) scale(1)}33%{transform:rotate(9deg) translate(3px,-2px) scale(1.05)}66%{transform:rotate(-5deg) translate(-2px,2px) scale(0.97)}} @keyframes dbbaSwayB{0%,100%{transform:rotate(0deg) translate(0,0) scale(1)}33%{transform:rotate(-9deg) translate(-3px,2px) scale(0.96)}66%{transform:rotate(5deg) translate(2px,-2px) scale(1.04)}} @keyframes dbbaWanderA{0%,100%{transform:rotate(0deg) translate(0,0) scale(1)}30%{transform:rotate(13deg) translate(5px,-4px) scale(1.08)}65%{transform:rotate(-8deg) translate(-4px,3px) scale(0.94)}} @keyframes dbbaWanderB{0%,100%{transform:rotate(0deg) translate(0,0) scale(1)}30%{transform:rotate(-13deg) translate(-5px,4px) scale(0.93)}65%{transform:rotate(8deg) translate(4px,-3px) scale(1.07)}} .dbba-l1,.dbba-l2,.dbba-l3,.dbba-l4{transform-box:fill-box;transform-origin:center} .dbba-l1{animation:dbbaSwayA calc(var(--dbba-t,1)*18s) ease-in-out infinite} .dbba-l2{animation:dbbaSwayB calc(var(--dbba-t,1)*14s) ease-in-out infinite} .dbba-l3{animation:dbbaWanderA calc(var(--dbba-t,1)*11s) ease-in-out infinite} .dbba-l4{animation:dbbaWanderB calc(var(--dbba-t,1)*9s) ease-in-out infinite}.dbba-l1,.dbba-l2,.dbba-l3,.dbba-l4{animation-play-state:var(--dbba-p,paused)}}</style></g><clipPath id="clip-742eda34"><rect width="100" height="100" rx="0" ry="0"/></clipPath></defs><g clip-path="url(#clip-742eda34)"><rect width="100" height="100" fill="#0369a1"/><use transform="translate(12.8063, -4.404)" href="#body-quartet-742eda34"/><use href="#animation-medium-742eda34"/></g></svg>