<svg xmlns="http://www.w3.org/2000/svg" viewBox="0 0 100 100" fill="none" shape-rendering="auto" aria-hidden="true"><!-- Generated by DiceBear (https://www.dicebear.com) --><metadata xmlns:rdf="http://www.w3.org/1999/02/22-rdf-syntax-ns#" xmlns:xsi="http://www.w3.org/2001/XMLSchema-instance" xmlns:dc="http://purl.org/dc/elements/1.1/" xmlns:dcterms="http://purl.org/dc/terms/"><rdf:RDF><rdf:Description><dc:title>Sprouts</dc:title><dc:creator>DiceBear</dc:creator><dc:source xsi:type="dcterms:URI">https://www.dicebear.com</dc:source><dcterms:license xsi:type="dcterms:URI">https://creativecommons.org/publicdomain/zero/1.0/</dcterms:license><dc:rights>“Sprouts” (https://www.dicebear.com) by “DiceBear”, licensed under “CC0 1.0” (https://creativecommons.org/publicdomain/zero/1.0/)</dc:rights></rdf:Description></rdf:RDF></metadata><defs><g id="plant-grass-5239f91b"><g opacity=".15" transform="translate(-14 -5.5)"><path d="M44 72c-2-12-4-20-8-28m14 28V38m6 34c2-12 4-20 8-28M47 72c-2-10-4-16-7-20m13 20c2-10 4-16 7-20" stroke="#1e293b" stroke-width="4" stroke-linecap="round" stroke-linejoin="round" fill="none"/></g><path d="M27 63c-2-12-4-20-8-28m14 28V29m6 34c2-12 4-20 8-28M30 63c-2-10-4-16-7-20m13 20c2-10 4-16 7-20" stroke="#a3e635" stroke-width="4" stroke-linecap="round" stroke-linejoin="round" fill="none"/></g><clipPath id="dbspp-round"><path d="M33 4C13 4 5 16 5 26c0 12 12 22 28 22s28-10 28-22c0-10-8-22-28-22"/></clipPath><g id="pot-round-5239f91b"><path d="M36 7.5c-20 0-28 12-28 22 0 12 12 22 28 22s28-10 28-22c0-10-8-22-28-22" fill="#1e293b" opacity=".15"/><path d="M33 4C13 4 5 16 5 26c0 12 12 22 28 22s28-10 28-22c0-10-8-22-28-22" fill="#fda4af"/><g clip-path="url(#dbspp-round)"><path d="M33 4C13 4 5 16 5 26c0 12 12 22 28 22s28-10 28-22c0-10-8-22-28-22m3 3.5c-20 0-28 12-28 22 0 12 12 22 28 22s28-10 28-22c0-10-8-22-28-22" fill="#ffffff" opacity=".16" fill-rule="evenodd"/><path d="M33 4C13 4 5 16 5 26c0 12 12 22 28 22s28-10 28-22c0-10-8-22-28-22M30 .5c-20 0-28 12-28 22 0 12 12 22 28 22s28-10 28-22c0-10-8-22-28-22" fill="#1e293b" opacity=".1" fill-rule="evenodd"/></g></g><g id="cheeks-blushBig-5239f91b"><ellipse cx="4.5" cy="4" rx="4" ry="2.7" fill="#ffffff" opacity=".3"/><ellipse cx="37.5" cy="4" rx="4" ry="2.7" fill="#ffffff" opacity=".3"/></g><g id="eyes-closedLine-5239f91b"><path d="M3 9q6 5 12 0m10 0q6 5 12 0" stroke="#1e293b" stroke-width="3" stroke-linecap="round" stroke-linejoin="round"/></g><g id="mouth-wavy-5239f91b"><path d="M2 5q4-3 8 0t8 0" stroke="#1e293b" stroke-width="2.5" stroke-linecap="round" stroke-linejoin="round"/></g><g id="animation-medium-5239f91b"><g class="dbsp-medium"/><style>svg:has(.dbsp-medium){--dbsp-t:1;--dbsp-p:running}@media (prefers-reduced-motion: no-preference){@keyframes dbspSway{0%{transform:rotate(0deg);animation-timing-function:ease-out}25%{transform:rotate(-2.5deg);animation-timing-function:ease-in-out}75%{transform:rotate(2.5deg);animation-timing-function:ease-in}100%{transform:rotate(0deg)}}@keyframes dbspBlink{0%,92%,100%{transform:scaleY(1)}95%,97%{transform:scaleY(0.15)}} .dbsp-e{transform-box:fill-box;transform-origin:center} .dbsp-g{transform-box:fill-box;transform-origin:50% 100%} .dbsp-g{animation:dbspSway calc(var(--dbsp-t,1)*4.4s) ease-in-out infinite} .dbsp-e{animation:dbspBlink calc(var(--dbsp-t,1)*4.6s) linear infinite}.dbsp-g,.dbsp-e{animation-play-state:var(--dbsp-p,paused)}}</style></g><clipPath id="clip-5239f91b"><rect width="100" height="100" rx="0" ry="0"/></clipPath></defs><g clip-path="url(#clip-5239f91b)"><rect width="100" height="100" fill="#b45309"/><g class="dbsp-a"><g class="dbsp-g"><use transform="translate(17 9)" href="#plant-grass-5239f91b"/></g><use transform="translate(17 58)" href="#pot-round-5239f91b"/><use transform="translate(29 80)" href="#cheeks-blushBig-5239f91b"/><g class="dbsp-e"><use transform="translate(30 67)" href="#eyes-closedLine-5239f91b"/></g><use transform="translate(40 81)" href="#mouth-wavy-5239f91b"/></g><use href="#animation-medium-5239f91b"/></g></svg>