<svg xmlns="http://www.w3.org/2000/svg" viewBox="0 0 100 100" fill="none" shape-rendering="auto" aria-hidden="true"><!-- Generated by DiceBear (https://www.dicebear.com) --><metadata xmlns:rdf="http://www.w3.org/1999/02/22-rdf-syntax-ns#" xmlns:xsi="http://www.w3.org/2001/XMLSchema-instance" xmlns:dc="http://purl.org/dc/elements/1.1/" xmlns:dcterms="http://purl.org/dc/terms/"><rdf:RDF><rdf:Description><dc:title>Weave</dc:title><dc:creator>DiceBear</dc:creator><dc:source xsi:type="dcterms:URI">https://www.dicebear.com</dc:source><dcterms:license xsi:type="dcterms:URI">https://creativecommons.org/publicdomain/zero/1.0/</dcterms:license><dc:rights>“Weave” (https://www.dicebear.com) by “DiceBear”, licensed under “CC0 1.0” (https://creativecommons.org/publicdomain/zero/1.0/)</dc:rights></rdf:Description></rdf:RDF></metadata><defs><g id="bandA-wide-ea89c461"><path fill="#60a5fa" fill-opacity=".7" d="M0 0h26v160H0z"/></g><g id="bandB-twin-ea89c461"><path fill="#fb923c" fill-opacity=".7" d="M2 0h16v160H2zm20 0h5v160h-5z"/></g><g id="bandC02-wide-ea89c461"><path fill="#22d3ee" fill-opacity=".7" d="M0 0h26v160H0z"/></g><g id="lineAccent-default-ea89c461"><path fill="#f59e0b" fill-opacity=".95" d="M48.75-30h2.5v160h-2.5z"/></g><g id="bandC-thin-ea89c461"><path fill="#22d3ee" fill-opacity=".7" d="M7 0h12v160H7z"/></g><g id="bandA-medium-ea89c461"><path fill="#60a5fa" fill-opacity=".7" d="M4 0h18v160H4z"/></g><g id="bandB02-thin-ea89c461"><path fill="#fb923c" fill-opacity=".7" d="M7 0h12v160H7z"/></g><g id="lattice-default-ea89c461"><use transform="translate(37 -30) translate(-14.33514, 0)" href="#bandA-wide-ea89c461"/><use transform="translate(37 -30) translate(-25.39515, 0)" href="#bandB-twin-ea89c461"/><use transform="translate(37 -30) translate(33.35183, 0)" href="#bandC02-wide-ea89c461"/><use transform="translate(7.8545, 0)" href="#lineAccent-default-ea89c461"/><use transform="rotate(90 46.5 83.5) translate(9.69408, 0)" href="#bandC-thin-ea89c461"/><use transform="rotate(90 46.5 83.5) translate(-11.73728, 0)" href="#bandA-medium-ea89c461"/><use transform="rotate(90 46.5 83.5) translate(-23.5238, 0)" href="#bandB02-thin-ea89c461"/><use transform="rotate(90 50 50) translate(-25.7925, 0)" href="#lineAccent-default-ea89c461"/></g><g id="weave-diagonal-ea89c461"><use transform="rotate(45 50 50)" href="#lattice-default-ea89c461"/></g><clipPath id="clip-ea89c461"><rect width="100" height="100" rx="0" ry="0"/></clipPath></defs><g clip-path="url(#clip-ea89c461)"><rect width="100" height="100" fill="#e6f8ec"/><use href="#weave-diagonal-ea89c461"/></g></svg>