<svg xmlns="http://www.w3.org/2000/svg" viewBox="0 0 100 100" fill="none" shape-rendering="auto" aria-hidden="true"><!-- Generated by DiceBear (https://www.dicebear.com) --><metadata xmlns:rdf="http://www.w3.org/1999/02/22-rdf-syntax-ns#" xmlns:xsi="http://www.w3.org/2001/XMLSchema-instance" xmlns:dc="http://purl.org/dc/elements/1.1/" xmlns:dcterms="http://purl.org/dc/terms/"><rdf:RDF><rdf:Description><dc:title>Planets</dc:title><dc:creator>DiceBear</dc:creator><dc:source xsi:type="dcterms:URI">https://www.dicebear.com</dc:source><dcterms:license xsi:type="dcterms:URI">https://creativecommons.org/publicdomain/zero/1.0/</dcterms:license><dc:rights>“Planets” (https://www.dicebear.com) by “DiceBear”, licensed under “CC0 1.0” (https://creativecommons.org/publicdomain/zero/1.0/)</dc:rights></rdf:Description></rdf:RDF></metadata><defs><g id="star-medium-62b992a4"><g class="dbpa-tw-medium"><circle cx="5" cy="5" r="1.1" fill="#fff" fill-opacity=".85"/></g></g><g id="star-small-62b992a4"><circle cx="5" cy="5" r=".8" fill="#fff" fill-opacity=".85"/></g><g id="star-faint-62b992a4"><circle cx="5" cy="5" r=".7" fill="#fff" fill-opacity=".5"/></g><g id="planet-disc-62b992a4"><circle cx="30" cy="30" r="30" fill="#00b1cf"/></g><clipPath id="dicebearPlanets-cratered"><circle cx="34" cy="33" r="30"/></clipPath><g id="surface-cratered-62b992a4"><g class="dbpa-surface"><g clip-path="url(#dicebearPlanets-cratered)"><circle cx="24" cy="21" r="5" fill="#000" fill-opacity=".13"/><circle cx="44" cy="28" r="4" fill="#000" fill-opacity=".12"/><circle cx="31" cy="44" r="6" fill="#000" fill-opacity=".13"/><circle cx="18" cy="35" r="3" fill="#000" fill-opacity=".12"/><circle cx="42" cy="47" r="3.5" fill="#000" fill-opacity=".11"/><circle cx="36" cy="12" r="2.5" fill="#000" fill-opacity=".12"/><circle cx="28" cy="30" r="2" fill="#fff" fill-opacity=".1"/><circle cx="47" cy="38" r="1.8" fill="#fff" fill-opacity=".1"/></g></g></g><radialGradient id="dicebearPlanets-shade" gradientUnits="userSpaceOnUse" cx="22" cy="22" r="44"><stop offset="0" stop-color="#fff" stop-opacity=".14"/><stop offset=".38" stop-color="#fff" stop-opacity="0"/><stop offset=".55" stop-color="#000" stop-opacity="0"/><stop offset="1" stop-color="#000" stop-opacity=".26"/></radialGradient><g id="shade-soft-62b992a4"><circle cx="30" cy="30" r="30" fill="url(#dicebearPlanets-shade)"/><path d="M55.2 13.7a30 30 0 0 1-41.5 41.5 33.5 33.5 0 0 0 41.5-41.5" fill="#000" fill-opacity=".13"/></g><g id="moons-two-62b992a4"><g class="dbpa-moons"><circle cx="56" cy="10" r="3.5" fill="#e0ded8"/><circle cx="3" cy="47" r="2.2" fill="#e0ded8"/></g></g><g id="animation-medium-62b992a4"><g class="dbpa-medium"/><style>svg:has(.dbpa-medium){--dbpa-t:1;--dbpa-p:running}@media (prefers-reduced-motion: no-preference){@keyframes dbpaSpin{to{transform:rotate(360deg)}} @keyframes dbpaTw{0%,100%{opacity:1}50%{opacity:.3}} .dbpa-surface{transform-origin:34px 33px;animation:dbpaSpin calc(var(--dbpa-t,1)*100s) linear infinite} .dbpa-moons{transform-origin:29px 29px;animation:dbpaSpin calc(var(--dbpa-t,1)*42s) linear infinite} .dbpa-tw-medium{animation:dbpaTw calc(var(--dbpa-t,1)*5.2s) ease-in-out infinite calc(var(--dbpa-t,1)*2s)} .dbpa-tw-large{animation:dbpaTw calc(var(--dbpa-t,1)*3.7s) ease-in-out infinite calc(var(--dbpa-t,1)*2.7s)} .dbpa-tw-sparkle{animation:dbpaTw calc(var(--dbpa-t,1)*2.8s) ease-in-out infinite calc(var(--dbpa-t,1)*1.4s)}.dbpa-surface,.dbpa-moons,.dbpa-tw-medium,.dbpa-tw-large,.dbpa-tw-sparkle{animation-play-state:var(--dbpa-p,paused)}}</style></g><clipPath id="clip-62b992a4"><rect width="100" height="100" rx="0" ry="0"/></clipPath></defs><g clip-path="url(#clip-62b992a4)"><rect width="100" height="100" fill="#012e3a"/><use transform="translate(7.5 7.5) translate(3.40625, 3.15006)" href="#star-medium-62b992a4"/><use transform="translate(32.5 7.5) translate(-9.96767, 0.54369)" href="#star-small-62b992a4"/><use transform="translate(57.5 7.5) translate(-8.88694, 11.96913)" href="#star-faint-62b992a4"/><use transform="translate(82.5 7.5) translate(-8.45452, 2.75406)" href="#star-medium-62b992a4"/><use transform="translate(7.5 32.5) translate(8.19086, -10.84319)" href="#star-small-62b992a4"/><use transform="translate(82.5 32.5) translate(8.02122, -6.80857)" href="#star-medium-62b992a4"/><use transform="translate(7.5 57.5) translate(5.32335, 0.25228)" href="#star-faint-62b992a4"/><use transform="translate(82.5 57.5) translate(-10.0929, -11.65992)" href="#star-faint-62b992a4"/><use transform="translate(7.5 82.5) translate(-9.27683, 6.98945)" href="#star-medium-62b992a4"/><use transform="translate(32.5 82.5) translate(7.92863, 11.10868)" href="#star-faint-62b992a4"/><use transform="translate(57.5 82.5) translate(-0.26942, 7.63163)" href="#star-small-62b992a4"/><use transform="translate(82.5 82.5) translate(7.15427, 11.70413)" href="#star-medium-62b992a4"/><use transform="translate(20 20)" href="#planet-disc-62b992a4"/><use transform="translate(16 17) rotate(175.5061, 34, 33)" href="#surface-cratered-62b992a4"/><use transform="translate(20 20)" href="#shade-soft-62b992a4"/><use transform="translate(21 21) translate(-1.86619, 4.23875)" href="#moons-two-62b992a4"/><use href="#animation-medium-62b992a4"/></g></svg>